HIERARCHY
ROOT Hips
{
	OFFSET 0.000000 0.000000 0.000000
	CHANNELS 6 Xposition Yposition Zposition Xrotation Yrotation Zrotation
	JOINT LeftUpLeg_virtual
	{
		OFFSET 0.000000 0.000000 0.000000
		CHANNELS 3 Xrotation Yrotation Zrotation
		JOINT LeftUpLeg
		{
			OFFSET 15.427100 -6.655098 0.678600
			CHANNELS 3 Xrotation Yrotation Zrotation
			JOINT LeftLeg
			{
				OFFSET 4.081073 -39.591068 13.024000
				CHANNELS 3 Xrotation Yrotation Zrotation
				JOINT LeftFoot
				{
					OFFSET -4.081074 -37.707932 -15.979700
					CHANNELS 3 Xrotation Yrotation Zrotation
					JOINT LeftToeBase
					{
						OFFSET 5.346399 -15.068900 20.645000
						CHANNELS 3 Xrotation Yrotation Zrotation
						JOINT LeftToe_End
						{
							OFFSET 2.754700 0.931300 11.300900
							CHANNELS 3 Xrotation Yrotation Zrotation
							End Site
							{
								OFFSET 0 0 0
							}
						}
					}
				}
			}
		}
	}
	JOINT RightUpLeg_virtual
	{
		OFFSET 0.000000 0.000000 0.000000
		CHANNELS 3 Xrotation Yrotation Zrotation
		JOINT RightUpLeg
		{
			OFFSET -15.569500 -6.655098 0.678600
			CHANNELS 3 Xrotation Yrotation Zrotation
			JOINT RightLeg
			{
				OFFSET -4.081825 -39.591045 13.023800
				CHANNELS 3 Xrotation Yrotation Zrotation
				JOINT RightFoot
				{
					OFFSET 4.081824 -37.707954 -15.979600
					CHANNELS 3 Xrotation Yrotation Zrotation
					JOINT RightToeBase
					{
						OFFSET -5.346400 -15.068900 20.645000
						CHANNELS 3 Xrotation Yrotation Zrotation
						JOINT RightToe_End
						{
							OFFSET -2.754700 0.931300 11.300900
							CHANNELS 3 Xrotation Yrotation Zrotation
							End Site
							{
								OFFSET 0 0 0
							}
						}
					}
				}
			}
		}
	}
	JOINT Spine_virtual
	{
		OFFSET 0.000000 0.000000 0.000000
		CHANNELS 3 Xrotation Yrotation Zrotation
		JOINT Spine
		{
			OFFSET -0.279200 12.230698 -2.892100
			CHANNELS 3 Xrotation Yrotation Zrotation
			JOINT Spine1
			{
				OFFSET -0.232667 10.192268 -1.242267
				CHANNELS 3 Xrotation Yrotation Zrotation
				JOINT Spine1_split
				{
					OFFSET -0.232667 10.192268 -1.242267
					CHANNELS 3 Xrotation Yrotation Zrotation
					JOINT Spine2
					{
						OFFSET -0.232667 10.192268 -1.242267
						CHANNELS 3 Xrotation Yrotation Zrotation
						JOINT Neck_virtual
						{
							OFFSET 0.000000 0.000000 0.000000
							CHANNELS 3 Xrotation Yrotation Zrotation
							JOINT Neck
							{
								OFFSET -0.418800 17.814194 8.416900
								CHANNELS 3 Xrotation Yrotation Zrotation
								JOINT Head
								{
									OFFSET 0.000000 7.031097 3.806800
									CHANNELS 3 Xrotation Yrotation Zrotation
									JOINT HeadTop_End
									{
										OFFSET 0.000000 24.646606 12.978600
										CHANNELS 3 Xrotation Yrotation Zrotation
										End Site
										{
											OFFSET 0 0 0
										}
									}
								}
							}
						}
						JOINT LeftShoulder_virtual
						{
							OFFSET 0.000000 0.000000 0.000000
							CHANNELS 3 Xrotation Yrotation Zrotation
							JOINT LeftShoulder
							{
								OFFSET 8.476499 7.247704 -3.868750
								CHANNELS 3 Xrotation Yrotation Zrotation
								JOINT LeftShoulder_split
								{
									OFFSET 8.476499 7.247704 -3.868750
									CHANNELS 3 Xrotation Yrotation Zrotation
									JOINT LeftArm
									{
										OFFSET 9.308998 -2.777710 0.208600
										CHANNELS 3 Xrotation Yrotation Zrotation
										JOINT LeftForeArm
										{
											OFFSET 29.972298 0.000000 0.000000
											CHANNELS 3 Xrotation Yrotation Zrotation
											JOINT LeftHand
											{
												OFFSET 26.026505 0.000000 0.000000
												CHANNELS 3 Xrotation Yrotation Zrotation
												End Site
												{
													OFFSET 0 0 0
												}
											}
										}
									}
								}
							}
						}
						JOINT RightShoulder_virtual
						{
							OFFSET 0.000000 0.000000 0.000000
							CHANNELS 3 Xrotation Yrotation Zrotation
							JOINT RightShoulder
							{
								OFFSET -7.570500 7.247704 -3.868750
								CHANNELS 3 Xrotation Yrotation Zrotation
								JOINT RightShoulder_split
								{
									OFFSET -7.570500 7.247704 -3.868750
									CHANNELS 3 Xrotation Yrotation Zrotation
									JOINT RightArm
									{
										OFFSET -9.308998 -2.777710 0.208500
										CHANNELS 3 Xrotation Yrotation Zrotation
										JOINT RightForeArm
										{
											OFFSET -29.972300 0.000000 0.000000
											CHANNELS 3 Xrotation Yrotation Zrotation
											JOINT RightHand
											{
												OFFSET -26.026505 0.000000 0.000000
												CHANNELS 3 Xrotation Yrotation Zrotation
												End Site
												{
													OFFSET 0 0 0
												}
											}
										}
									}
								}
							}
						}
					}
				}
			}
		}
	}
}
MOTION
Frames: 10
Frame Time: 0.03333333
-4.031346 78.135803 82.057770 0.000000 0.000000 0.000000 26.007829 15.828077 -5.635776 -4.764319 7.336509 7.114941 22.780902 13.567952 2.424710 -26.065066 13.287599 -30.526619 -13.256713 -4.730328 3.360257 0.000000 0.000000 0.000000 26.951967 16.302623 -5.870016 -62.652574 -9.508593 -0.450248 54.477182 -31.258070 -13.438791 -7.132241 1.530356 -1.599839 -6.411762 6.393603 4.496151 0.000000 0.000000 0.000000 28.496512 9.473040 -4.624769 5.489721 -0.131645 0.757464 8.894239 -0.332142 3.837736 1.043041 -0.773397 1.387041 0.000000 0.000000 0.000000 10.355558 0.163051 3.320286 -6.965981 -0.399441 -0.222986 -6.684263 6.561973 2.805396 0.000000 0.000000 0.000000 11.784041 -0.481644 3.462111 2.220237 -19.839347 2.934903 1.200459 -1.054022 -3.521449 -39.505896 -22.385776 -40.686908 109.507822 -63.553394 121.102191 0.000000 0.000000 0.000000 10.453616 0.274806 4.090729 3.258658 10.627184 -1.789910 3.037719 5.637287 0.867379 -46.343383 14.203176 35.382477 120.068838 46.721048 -141.497204 0.000000 0.000000 0.000000 
-4.111515 77.801994 82.576462 0.000000 0.000000 0.000000 26.159903 15.972042 -5.669482 -5.231101 7.435531 7.362061 23.452267 13.592223 2.540082 -26.022514 13.349660 -31.296863 -14.096128 -4.851910 3.386493 0.000000 0.000000 0.000000 27.124305 16.454901 -5.905328 -63.457949 -9.693962 -0.502159 55.509583 -31.306268 -13.625198 -7.154819 1.677137 -1.574025 -7.073238 6.274262 4.614124 0.000000 0.000000 0.000000 28.674616 9.518970 -4.642851 5.516491 -0.075736 0.787892 8.423806 -0.302223 3.825188 1.052474 -0.775027 1.364222 0.000000 0.000000 0.000000 9.863796 0.188181 3.318416 -7.206463 -0.370123 -0.332232 -6.719765 6.353381 2.816323 0.000000 0.000000 0.000000 11.281301 -0.443669 3.448114 2.354111 -19.931165 3.414635 1.205133 -1.008841 -3.484397 -39.987435 -22.528197 -40.583174 107.753208 -64.051916 119.426650 0.000000 0.000000 0.000000 9.973931 0.307851 4.070389 3.331054 10.431328 -2.196466 3.095857 5.703619 0.816658 -47.079965 14.258031 35.824919 119.586777 47.116219 -140.766183 0.000000 0.000000 0.000000 
-4.183852 77.503799 83.064651 0.000000 0.000000 0.000000 26.345599 16.098913 -5.725381 -5.769758 7.561920 7.629098 24.111042 13.637056 2.658509 -25.948633 13.397189 -32.037245 -14.885323 -4.980673 3.410809 0.000000 0.000000 0.000000 27.325553 16.586764 -5.960950 -64.213006 -9.909293 -0.566554 56.368598 -31.318979 -13.845456 -7.159324 1.838855 -1.472814 -7.700845 6.177679 4.699972 0.000000 0.000000 0.000000 28.881195 9.561592 -4.688057 5.557320 -0.033433 0.823914 7.926521 -0.273256 3.820515 1.056597 -0.772181 1.351248 0.000000 0.000000 0.000000 9.340412 0.209601 3.321177 -7.433344 -0.317318 -0.466149 -6.743763 6.184483 2.827810 0.000000 0.000000 0.000000 10.747634 -0.408482 3.440776 2.478071 -20.025541 3.867736 1.221824 -0.967736 -3.437875 -40.606585 -22.735106 -40.564756 105.591132 -64.561544 117.314154 0.000000 0.000000 0.000000 9.463758 0.338796 4.057470 3.399733 10.225485 -2.630130 3.180146 5.776693 0.771468 -47.913582 14.258429 36.295181 118.967169 47.589722 -139.902369 0.000000 0.000000 0.000000 
-4.238401 77.228127 83.535553 0.000000 0.000000 0.000000 26.575231 16.198953 -5.815401 -6.369520 7.698956 7.930750 24.772106 13.698648 2.781649 -25.853731 13.434135 -32.751245 -15.643319 -5.117160 3.437235 0.000000 0.000000 0.000000 27.563462 16.687262 -6.050170 -64.909589 -10.185139 -0.605824 57.086485 -31.318634 -14.083748 -7.249870 2.006213 -1.374364 -8.233005 6.099429 4.774492 0.000000 0.000000 0.000000 29.119333 9.575558 -4.760620 5.604069 0.000463 0.867367 7.404852 -0.245740 3.816378 1.062351 -0.757603 1.342668 0.000000 0.000000 0.000000 8.785059 0.226112 3.319505 -7.638952 -0.247564 -0.611769 -6.778799 6.044140 2.851399 0.000000 0.000000 0.000000 10.185388 -0.378650 3.432477 2.591911 -20.115949 4.306811 1.241087 -0.923859 -3.395574 -41.329492 -23.025471 -40.619210 103.071455 -65.051084 114.809510 0.000000 0.000000 0.000000 8.920318 0.364204 4.043581 3.464280 10.014950 -3.080681 3.287364 5.835955 0.735933 -48.796944 14.153325 36.795346 118.225056 48.129502 -138.931840 0.000000 0.000000 0.000000 
-4.279260 76.953133 84.001144 0.000000 0.000000 0.000000 26.858319 16.261039 -5.934820 -7.008207 7.828841 8.268400 25.446700 13.776147 2.915729 -25.773020 13.464296 -33.428080 -16.434407 -5.266481 3.490191 0.000000 0.000000 0.000000 27.839959 16.761776 -6.173658 -65.564728 -10.539612 -0.612830 57.788318 -31.339394 -14.284003 -7.461027 2.153986 -1.374819 -8.679133 6.028392 4.867752 0.000000 0.000000 0.000000 29.393316 9.560365 -4.852442 5.648792 0.030185 0.913382 6.864542 -0.220164 3.805349 1.054785 -0.755045 1.348465 0.000000 0.000000 0.000000 8.204267 0.237500 3.307516 -7.817588 -0.171723 -0.754659 -6.846421 5.913453 2.890150 0.000000 0.000000 0.000000 9.598937 -0.354436 3.417669 2.698468 -20.202936 4.747152 1.276223 -0.874187 -3.365722 -42.117569 -23.395449 -40.706049 100.303992 -65.501760 112.026741 0.000000 0.000000 0.000000 8.346834 0.383521 4.020763 3.522835 9.801378 -3.543275 3.413941 5.886004 0.707119 -49.684719 13.935514 37.319689 117.412851 48.705389 -137.913240 0.000000 0.000000 0.000000 
-4.310061 76.666664 84.472031 0.000000 0.000000 0.000000 27.193807 16.293968 -6.077244 -7.655448 7.930469 8.618446 26.137554 13.868502 3.068140 -25.729280 13.494698 -34.064626 -17.287687 -5.429118 3.572357 0.000000 0.000000 0.000000 28.152798 16.814920 -6.317866 -66.243259 -10.948541 -0.608724 58.568380 -31.381154 -14.414180 -7.728955 2.265526 -1.474779 -9.146298 5.945713 4.996042 0.000000 0.000000 0.000000 29.694124 9.515420 -4.950271 5.681109 0.057902 0.952209 6.310155 -0.195290 3.784584 1.035317 -0.775963 1.357109 0.000000 0.000000 0.000000 7.607223 0.244864 3.282384 -7.965670 -0.101500 -0.888102 -6.961968 5.778129 2.942689 0.000000 0.000000 0.000000 8.994112 -0.335470 3.394353 2.798730 -20.285491 5.195890 1.304692 -0.819199 -3.352398 -42.926192 -23.820338 -40.774266 97.425730 -65.911517 109.110086 0.000000 0.000000 0.000000 7.746988 0.394768 3.985661 3.573465 9.593862 -4.006312 3.550439 5.919876 0.673556 -50.535767 13.625671 37.856187 116.591152 49.283513 -136.907317 0.000000 0.000000 0.000000 
-4.336681 76.354805 84.967270 0.000000 0.000000 0.000000 27.578513 16.298635 -6.222888 -8.291820 7.977989 8.966899 26.844718 13.956277 3.240529 -25.718022 13.533759 -34.696565 -18.190602 -5.598937 3.679032 0.000000 0.000000 0.000000 28.503872 16.852314 -6.467340 -67.024462 -11.358282 -0.632376 59.498809 -31.396781 -14.466324 -7.970085 2.349074 -1.585691 -9.769036 5.830503 5.155969 0.000000 0.000000 0.000000 30.020942 9.445812 -5.040654 5.693983 0.086587 0.970428 5.751243 -0.172261 3.755445 1.007834 -0.807575 1.371323 0.000000 0.000000 0.000000 7.003764 0.250497 3.247840 -8.076026 -0.047055 -1.006491 -7.131225 5.628905 2.996160 0.000000 0.000000 0.000000 8.381964 -0.319612 3.366286 2.896233 -20.371796 5.649631 1.336779 -0.771427 -3.362407 -43.693516 -24.278819 -40.783517 94.537864 -66.287150 106.167586 0.000000 0.000000 0.000000 7.131516 0.400809 3.942206 3.614748 9.404689 -4.454445 3.683625 5.948343 0.636462 -51.313227 13.274294 38.383542 115.763660 49.848295 -135.918647 0.000000 0.000000 0.000000 
-4.365608 76.012512 85.483261 0.000000 0.000000 0.000000 28.004218 16.280610 -6.354582 -8.908061 7.958538 9.294435 27.554030 14.034485 3.427242 -25.726237 13.587216 -35.335786 -19.094193 -5.766604 3.793487 0.000000 0.000000 0.000000 28.903335 16.880910 -6.605505 -67.936531 -11.728456 -0.719049 60.595437 -31.355626 -14.452241 -8.119877 2.410111 -1.641832 -10.594043 5.672179 5.329160 0.000000 0.000000 0.000000 30.367178 9.362273 -5.113483 5.683225 0.116060 0.959256 5.196290 -0.151059 3.723683 0.991991 -0.853208 1.387999 0.000000 0.000000 0.000000 6.401589 0.254305 3.210056 -8.141163 -0.016939 -1.105113 -7.347886 5.457548 3.029746 0.000000 0.000000 0.000000 7.770208 -0.307577 3.338308 2.993385 -20.470721 6.094247 1.363294 -0.755889 -3.379074 -44.369653 -24.746795 -40.714150 91.675666 -66.638884 103.241055 0.000000 0.000000 0.000000 6.511318 0.404047 3.897624 3.643305 9.243946 -4.860768 3.800575 5.998016 0.597699 -51.982551 12.936861 38.871057 114.893317 50.403118 -134.901810 0.000000 0.000000 0.000000 
-4.387967 75.642197 86.034943 0.000000 0.000000 0.000000 28.455015 16.228716 -6.457208 -9.492239 7.885197 9.590706 28.248660 14.100604 3.615053 -25.727395 13.663520 -36.002709 -19.972100 -5.924632 3.903279 0.000000 0.000000 0.000000 29.352308 16.893650 -6.723588 -68.968443 -12.035379 -0.878352 61.801635 -31.246811 -14.403996 -8.174213 2.441894 -1.597477 -11.575899 5.475110 5.479454 0.000000 0.000000 0.000000 30.730845 9.256669 -5.164728 5.645399 0.146854 0.914908 4.651305 -0.130922 3.691930 0.977623 -0.906371 1.395233 0.000000 0.000000 0.000000 5.804990 0.257609 3.172642 -8.144686 -0.015084 -1.180932 -7.599806 5.268974 3.020840 0.000000 0.000000 0.000000 7.167816 -0.296901 3.311905 3.089118 -20.590840 6.504939 1.403454 -0.762555 -3.394567 -44.910065 -25.221268 -40.563493 88.844594 -66.957178 100.334448 0.000000 0.000000 0.000000 5.895389 0.406903 3.857313 3.659407 9.132631 -5.187832 3.907274 6.049522 0.546829 -52.523260 12.646620 39.282474 113.911928 50.959386 -133.784759 0.000000 0.000000 0.000000 
-4.400954 75.248619 86.601273 0.000000 0.000000 0.000000 28.926606 16.147450 -6.533620 -10.046188 7.780594 9.864001 28.912775 14.155095 3.790470 -25.705712 13.761341 -36.698692 -20.832951 -6.069791 4.002573 0.000000 0.000000 0.000000 29.842514 16.882110 -6.823533 -70.072031 -12.285603 -1.094992 63.055350 -31.075913 -14.340423 -8.174777 2.450235 -1.468306 -12.561397 5.262020 5.579762 0.000000 0.000000 0.000000 31.123663 9.130258 -5.200983 5.580560 0.181780 0.847017 4.117313 -0.109858 3.658825 0.965583 -0.954265 1.412860 0.000000 0.000000 0.000000 5.215364 0.262678 3.135862 -8.073827 -0.039442 -1.229890 -7.870437 5.068368 2.950337 0.000000 0.000000 0.000000 6.576008 -0.285123 3.285623 3.184001 -20.746322 6.862209 1.440148 -0.798919 -3.397277 -45.298091 -25.695580 -40.333869 86.044524 -67.227230 97.450653 0.000000 0.000000 0.000000 5.290929 0.413226 3.822072 3.661767 9.070823 -5.416314 3.979643 6.113044 0.496107 -52.939007 12.438143 39.575448 112.802753 51.517525 -132.539452 0.000000 0.000000 0.000000 
